<svg width="161" height="42" viewBox="0 0 161 42" fill="none" xmlns="http://www.w3.org/2000/svg">
<g clip-path="url(#clip0_88_697)">
<path d="M26.6786 1.28565C26.8153 1.33578 26.952 1.38592 27.0929 1.43757C28.5407 2.02356 29.79 2.85427 30.5859 4.21868C30.8476 5.26518 30.8381 6.11888 30.2846 7.06132C30.2082 7.17547 30.1317 7.28962 30.0529 7.40723C29.9737 7.55919 29.9737 7.55919 29.8929 7.71422C30.0876 8.29847 30.2562 8.36916 30.7667 8.68855C31.766 9.31889 31.766 9.31889 31.9212 9.77588C31.9872 10.1542 31.9978 10.5046 31.9922 10.8883C31.9907 11.0168 31.9893 11.1452 31.9878 11.2776C31.9859 11.3745 31.9841 11.4715 31.9821 11.5714C32.0955 11.6153 32.2088 11.6592 32.3255 11.7045C33.6607 12.2509 34.8876 12.8987 36 13.8214C35.9397 14.1327 35.9397 14.1327 35.8393 14.4642C35.3634 14.7021 34.8657 14.6718 34.3426 14.6952C33.2827 14.7385 33.2827 14.7385 32.3036 15.1071C32.1599 15.5165 32.1599 15.5165 32.1429 15.9106C32.3086 15.9272 32.4743 15.9438 32.6451 15.9609C33.4526 16.1041 34.2026 16.3624 34.7143 17.0356C35.0332 17.8185 34.9724 18.7026 34.6841 19.4765C33.5114 21.2963 31.4382 22.2603 29.5429 23.16C29.1487 23.3531 28.7693 23.5714 28.3862 23.7856C27.606 24.1751 26.8946 24.2484 26.0357 24.1071C25.5335 23.8961 25.5335 23.8961 25.2321 23.6249C25.2321 23.4658 25.2321 23.3067 25.2321 23.1428C25.6299 22.9837 25.6299 22.9837 26.0357 22.8214C26.0357 22.7153 26.0357 22.6092 26.0357 22.4999C25.7887 22.5695 25.7887 22.5695 25.5366 22.6406C25.318 22.7009 25.0993 22.7611 24.8806 22.8214C24.7723 22.852 24.6641 22.8827 24.5526 22.9143C23.9616 23.0757 23.4346 23.1809 22.8214 23.1428C23.296 22.6231 23.7663 22.3035 24.3884 21.9776C24.5467 21.8939 24.7049 21.8102 24.868 21.724C25.0483 21.6308 25.0483 21.6308 25.2321 21.5356C25.2321 21.4826 25.2321 21.4296 25.2321 21.3749C25.0772 21.4116 24.9222 21.4483 24.7626 21.4861C24.5595 21.5323 24.3565 21.5784 24.1473 21.626C23.946 21.6727 23.7446 21.7193 23.5371 21.7673C23.0473 21.8465 22.7931 21.8694 22.3393 21.6964C22.573 21.5348 22.8076 21.3742 23.0424 21.2142C23.1729 21.1247 23.3034 21.0352 23.4379 20.943C23.7857 20.7321 23.7857 20.7321 24.1071 20.7321C24.115 20.6351 24.1229 20.5382 24.131 20.4383C24.149 20.2456 24.149 20.2456 24.1674 20.049C24.1786 19.9223 24.1898 19.7955 24.2013 19.6648C24.2703 19.2718 24.3942 18.9886 24.5893 18.6428C23.7388 18.8863 22.9107 19.15 22.0882 19.4765C21.3054 19.7617 20.5962 19.9519 19.7679 19.7678C18.9472 19.2663 18.627 18.7398 18.3214 17.8392C17.9177 16.1452 18.1883 14.5104 18.6429 12.8571C17.5465 13.76 16.8755 15.153 16.7143 16.5535C16.509 19.8236 18.1783 22.2463 20.04 24.7846C21.9642 27.4121 22.9228 30.2118 23.3036 33.4285C23.9893 31.4466 23.8562 29.3813 23.625 27.3214C25.2016 27.5511 26.4914 28.6593 27.6133 29.722C27.8991 29.9919 28.1864 30.2354 28.4967 30.4754C29.022 30.9397 29.3584 31.3885 29.7321 31.9821C29.7321 32.1412 29.7321 32.3003 29.7321 32.4642C29.2548 32.4112 28.7775 32.3581 28.2857 32.3035C28.4019 32.577 28.4019 32.577 28.5205 32.856C28.6231 33.1004 28.7256 33.3448 28.8281 33.5892C28.8791 33.7088 28.9301 33.8283 28.9826 33.9515C29.557 35.3276 29.7831 36.4951 29.7623 37.9888C29.7621 38.206 29.7621 38.206 29.762 38.4276C29.7548 39.4903 29.7548 39.4903 29.5714 39.8571C27.7302 40.6505 25.9605 40.781 23.9803 40.7674C23.6975 40.7679 23.4147 40.7687 23.1319 40.7697C22.5438 40.7709 21.9559 40.7692 21.3678 40.7654C20.6203 40.7608 19.8731 40.7635 19.1257 40.7683C18.5432 40.7712 17.9608 40.7702 17.3784 40.7682C17.103 40.7676 16.8276 40.7683 16.5523 40.7702C14.774 40.7797 13.3688 40.5797 11.7321 39.8571C11.55 39.7802 11.55 39.7802 11.3642 39.7017C11.089 39.5823 10.8176 39.4541 10.5469 39.3247C10.3733 39.2425 10.1997 39.1602 10.0208 39.0755C9.89607 39.0152 9.77136 38.9549 9.64286 38.8928C9.64286 38.7867 9.64286 38.6806 9.64286 38.5714C9.54984 38.5527 9.45682 38.5341 9.36098 38.5149C6.49636 37.6879 3.98277 34.2558 2.5887 31.8259C0.171094 27.3979 0.128764 22.3081 1.5067 17.5479C1.85613 16.39 2.27454 15.2625 2.73215 14.1428C2.53658 14.1262 2.34101 14.1096 2.13951 14.0926C1.54063 14.0182 1.13163 13.8702 0.642861 13.4999C0.589826 13.3939 0.53679 13.2878 0.482147 13.1785C0.564459 13.072 0.564459 13.072 0.648433 12.9634C1.6742 11.6345 2.6919 10.3028 3.65649 8.9286C4.02739 8.40125 4.39637 7.87806 4.82143 7.39279C4.9275 7.39279 5.03357 7.39279 5.14286 7.39279C5.14286 7.28672 5.14286 7.18065 5.14286 7.07136C6.90694 5.50746 9.15681 4.1785 11.5714 4.1785C11.4925 4.0685 11.4136 3.95849 11.3322 3.84515C11.0403 3.28016 11.04 2.91163 11.0592 2.28007C11.0657 2.00008 11.0657 2.00008 11.0723 1.71443C11.0779 1.57293 11.0835 1.43143 11.0893 1.28565C11.2029 1.28901 11.3165 1.29238 11.4335 1.29585C13.5849 1.35056 15.6441 1.32901 17.769 0.964219C20.7065 0.47064 23.8443 0.198409 26.6786 1.28565ZM14.7857 5.94636C14.2406 6.76406 14.2726 7.5878 14.2734 8.54792C14.2733 8.66848 14.2732 8.78905 14.2731 8.91326C14.2818 9.82728 14.3817 10.6874 14.625 11.5714C14.7841 11.6244 14.9432 11.6774 15.1071 11.7321C15.1306 11.6421 15.1541 11.5521 15.1784 11.4594C15.285 11.0514 15.392 10.6434 15.4989 10.2354C15.5359 10.0938 15.5728 9.95222 15.6109 9.80633C15.6467 9.67011 15.6824 9.5339 15.7192 9.39356C15.7521 9.26815 15.7849 9.14275 15.8187 9.01355C15.8942 8.7386 15.9813 8.46685 16.0714 8.19636C16.1775 8.2494 16.2836 8.30243 16.3929 8.35708C16.4933 8.76891 16.4933 8.76891 16.5536 9.16065C16.682 9.11797 16.8105 9.07529 16.9428 9.03132C18.1452 8.64464 19.3202 8.3677 20.5714 8.19636C20.0411 7.21901 19.3946 6.83544 18.3448 6.4916C18.0137 6.39359 17.6816 6.3036 17.3471 6.21757C17.241 6.19 17.1349 6.16243 17.0256 6.13403C16.2645 5.95322 15.5678 5.88322 14.7857 5.94636ZM23.7054 11.2399C23.4361 11.5751 23.4361 11.5751 23.3036 12.0535C23.3566 12.1596 23.4096 12.2656 23.4643 12.3749C23.5704 12.3749 23.6764 12.3749 23.7857 12.3749C23.7857 12.481 23.7857 12.5871 23.7857 12.6964C24.3062 12.8699 24.7165 12.8899 25.2642 12.9079C25.5555 12.918 25.5555 12.918 25.8527 12.9283C26.0556 12.9346 26.2586 12.941 26.4676 12.9475C26.7748 12.9579 26.7748 12.9579 27.0882 12.9685C27.5945 12.9856 28.1008 13.002 28.6071 13.0178C28.1706 12.5559 28.1706 12.5559 27.6429 12.2142C27.5013 11.8462 27.3965 11.4728 27.2863 11.0942C27.1914 10.738 27.1914 10.738 26.8393 10.6071C25.7565 10.5501 24.5922 10.5526 23.7054 11.2399ZM7.57617 17.9623C5.73693 19.8821 4.64128 22.3671 4.63058 25.0312C4.63819 25.3661 4.64735 25.7009 4.66072 26.0356C5.18709 26.0356 5.46664 25.9198 5.94643 25.7142C6.42623 25.5086 6.70577 25.3928 7.23215 25.3928C7.21682 25.4995 7.20148 25.6062 7.18569 25.7161C7.16787 25.858 7.15006 25.9999 7.1317 26.1461C7.11305 26.286 7.09441 26.4258 7.0752 26.5699C7.07095 27.0553 7.18723 27.3679 7.39286 27.8035C7.57745 27.7979 7.76204 27.7923 7.95222 27.7866C9.47894 27.7546 10.916 27.7693 12.375 28.2856C12.5341 28.4448 12.5341 28.4448 12.6964 28.6071C12.5647 28.6692 12.4329 28.7314 12.2972 28.7954C12.124 28.8791 11.9508 28.9628 11.7723 29.049C11.6008 29.1311 11.4292 29.2131 11.2525 29.2976C10.7892 29.5593 10.4779 29.8202 10.125 30.2142C10.2235 30.2318 10.322 30.2494 10.4235 30.2676C13.9646 30.9191 16.844 31.9196 18.9844 34.9653C19.1093 35.1596 19.1093 35.1596 19.2367 35.3577C19.4427 35.6968 19.4427 35.6968 19.7679 35.9999C19.9825 32.7452 18.4883 29.8397 16.4381 27.4067C15.9255 26.838 15.3866 26.348 14.7857 25.8749C14.6426 25.7562 14.4994 25.6375 14.3519 25.5152C13.4834 24.8147 13.4834 24.8147 12.4353 24.5189C11.6681 24.8457 11.0729 25.3308 10.4464 25.8749C10.1516 25.2852 10.256 24.5854 10.2556 23.9363C10.2536 23.7889 10.2516 23.6415 10.2496 23.4896C10.2476 22.5211 10.3643 21.6699 10.6071 20.7321C10.5085 20.7398 10.4099 20.7475 10.3083 20.7554C9.9555 20.783 9.9555 20.783 9.60268 20.8105C8.99216 20.9242 8.45248 21.1468 7.875 21.3749C8.7916 18.7259 8.7916 18.7259 9.59515 17.6459C9.81025 17.3478 9.96917 17.0465 10.125 16.7142C10.2311 16.7142 10.3371 16.7142 10.4464 16.7142C10.722 16.3993 10.9903 16.078 11.25 15.7499C9.98792 15.7499 8.4264 17.145 7.57617 17.9623Z" fill="#9ae600"/>
<path d="M113.033 15.7318C113.194 15.7326 113.355 15.7335 113.52 15.7343C113.694 15.7348 113.867 15.7354 114.046 15.7359C114.32 15.7379 114.32 15.7379 114.599 15.74C114.874 15.7411 114.874 15.7411 115.155 15.7422C115.609 15.7441 116.063 15.7467 116.518 15.75C117.015 17.6679 117.442 19.5959 117.844 21.5357C117.903 21.8183 117.962 22.1008 118.021 22.3833C118.163 23.0649 118.305 23.7467 118.446 24.4286C118.68 23.9952 118.827 23.6087 118.92 23.1257C118.945 22.9975 118.97 22.8693 118.996 22.7371C119.022 22.5998 119.048 22.4626 119.075 22.3211C119.103 22.1784 119.13 22.0357 119.159 21.8887C119.217 21.5872 119.275 21.2855 119.333 20.9838C119.42 20.5244 119.509 20.0653 119.598 19.6062C119.655 19.3125 119.711 19.0188 119.768 18.7251C119.794 18.5888 119.821 18.4525 119.848 18.3121C119.959 17.7252 120.064 17.1409 120.142 16.5485C120.214 16.0715 120.214 16.0715 120.375 15.9107C120.696 15.8967 121.018 15.8935 121.34 15.895C121.535 15.8956 121.73 15.8961 121.932 15.8966C122.137 15.898 122.343 15.8993 122.555 15.9007C122.761 15.9014 122.967 15.9021 123.18 15.9029C123.691 15.9048 124.203 15.9074 124.714 15.9107C125.012 16.8851 125.218 17.87 125.419 18.8683C125.454 19.0415 125.489 19.2147 125.525 19.3931C125.637 19.9432 125.748 20.4934 125.859 21.0436C125.935 21.4178 126.011 21.7921 126.087 22.1664C126.273 23.0811 126.458 23.9959 126.643 24.9107C126.678 24.7352 126.714 24.5596 126.751 24.3787C126.886 23.7134 127.021 23.0481 127.157 22.3829C127.215 22.0976 127.273 21.8123 127.331 21.5269C127.712 19.6461 128.123 17.7767 128.571 15.9107C129.844 15.8577 131.117 15.8047 132.429 15.75C132.248 16.8359 132.248 16.8359 132.086 17.3704C132.05 17.4915 132.014 17.6126 131.976 17.7373C131.917 17.932 131.917 17.932 131.856 18.1306C131.814 18.27 131.771 18.4094 131.728 18.5531C130.732 21.8157 129.655 25.0515 128.571 28.2857C127.193 28.2857 125.814 28.2857 124.393 28.2857C124.218 27.4956 124.044 26.7055 123.871 25.9152C123.845 25.7986 123.819 25.6819 123.793 25.5618C123.447 23.9863 123.11 22.41 122.811 20.8249C122.742 20.2481 122.742 20.2481 122.464 19.7679C122.435 19.9137 122.435 19.9137 122.404 20.0625C122.199 21.0741 121.993 22.0856 121.786 23.0971C121.71 23.4747 121.633 23.8522 121.556 24.2298C121.446 24.7724 121.335 25.3149 121.224 25.8574C121.19 26.0264 121.156 26.1953 121.12 26.3694C121.072 26.6058 121.072 26.6058 121.023 26.847C120.995 26.9855 120.967 27.1239 120.937 27.2666C120.865 27.608 120.781 27.9471 120.696 28.2857C119.264 28.2857 117.833 28.2857 116.357 28.2857C116.231 27.8581 116.105 27.4305 115.975 26.99C115.51 25.4262 115.01 23.874 114.506 22.3222C113.814 20.1919 113.151 18.0538 112.5 15.9107C112.661 15.75 112.661 15.75 113.033 15.7318Z" fill="#9ae600"/>
<path d="M143.595 16.8234C144.761 17.8368 145.249 19.1917 145.577 20.6818C145.667 22.2682 145.667 22.2682 145.607 22.8213C145.286 23.1428 145.286 23.1428 144.93 23.1814C144.708 23.1803 144.708 23.1803 144.482 23.1793C144.315 23.1792 144.147 23.1792 143.975 23.1792C143.703 23.1767 143.703 23.1767 143.426 23.1742C143.241 23.1737 143.056 23.1732 142.865 23.1728C142.273 23.171 141.68 23.1669 141.087 23.1629C140.686 23.1612 140.285 23.1598 139.884 23.1585C138.899 23.1549 137.914 23.1495 136.929 23.1428C136.949 23.3726 136.97 23.6024 136.993 23.8321C137.004 23.96 137.016 24.088 137.029 24.2198C137.123 24.7962 137.343 25.1239 137.732 25.5535C138.721 26.1129 139.499 26.1306 140.595 25.9151C141.109 25.7666 141.109 25.7666 141.318 25.4229C141.373 25.2489 141.373 25.2489 141.429 25.0713C141.535 24.8062 141.641 24.541 141.75 24.2678C142.917 24.2678 144.084 24.2678 145.286 24.2678C144.922 25.9026 144.922 25.9026 144.482 26.4475C144.399 26.5537 144.316 26.66 144.231 26.7695C144 26.9999 144 26.9999 143.679 26.9999C143.679 27.106 143.679 27.212 143.679 27.3213C143.372 27.5524 143.372 27.5524 142.955 27.8035C142.754 27.9278 142.754 27.9278 142.549 28.0546C140.871 28.867 138.499 28.9379 136.738 28.3459C135.984 28.0162 135.262 27.5854 134.679 26.9999C134.679 26.8938 134.679 26.7878 134.679 26.6785C134.572 26.6785 134.466 26.6785 134.357 26.6785C133.168 24.7321 132.675 22.6704 133.139 20.3994C133.618 18.6166 134.404 17.3678 135.964 16.3928C138.374 15.0215 141.386 15.0959 143.595 16.8234ZM137.35 18.8236C136.98 19.4089 136.98 19.4089 136.929 20.732C138.52 20.732 140.111 20.732 141.75 20.732C141.599 19.6751 141.468 19.1046 140.786 18.3213C139.582 17.7066 138.352 17.9273 137.35 18.8236Z" fill="#9ae600"/>
<path d="M96.2377 15.519C96.4504 15.5214 96.4504 15.5214 96.6674 15.5238C98.4185 15.5713 99.6192 16.024 100.892 17.258C102.182 18.7723 102.676 20.6988 102.536 22.6607C102.43 22.8199 102.324 22.979 102.214 23.1429C101.858 23.2009 101.858 23.2009 101.411 23.1976C101.16 23.1976 101.16 23.1976 100.904 23.1975C100.723 23.195 100.541 23.1925 100.355 23.19C100.077 23.189 100.077 23.189 99.794 23.1879C99.2012 23.1852 98.6084 23.1791 98.0156 23.173C97.6145 23.1706 97.2133 23.1684 96.8122 23.1664C95.8271 23.1611 94.8421 23.153 93.8571 23.1429C93.8772 23.3728 93.8989 23.6025 93.9212 23.8322C93.9331 23.9602 93.945 24.0881 93.9572 24.2199C94.0518 24.7963 94.2721 25.124 94.6607 25.5536C95.4667 26.0533 96.0889 26.0999 97.0231 25.9667C97.553 25.8353 97.8341 25.6385 98.1964 25.2322C98.3555 24.914 98.5146 24.5957 98.6786 24.2679C99.8454 24.2679 101.012 24.2679 102.214 24.2679C101.972 25.4787 101.553 26.3436 100.607 27.1607C100.515 27.242 100.422 27.3232 100.327 27.4068C98.7203 28.7254 96.8771 28.7712 94.8753 28.6481C93.4575 28.4936 92.2104 27.7473 91.2857 26.6786C90.9576 26.2173 90.7096 25.7499 90.4821 25.2322C90.4308 25.1193 90.3794 25.0064 90.3265 24.89C89.625 23.0227 89.7658 20.7093 90.5725 18.9147C90.8782 18.3424 91.1832 17.8498 91.6071 17.3572C91.7132 17.3572 91.8193 17.3572 91.9286 17.3572C91.9286 17.2511 91.9286 17.145 91.9286 17.0357C92.1998 16.8104 92.1998 16.8104 92.5714 16.5636C92.6908 16.4826 92.8101 16.4016 92.933 16.3182C94.0312 15.7051 94.9823 15.5035 96.2377 15.519ZM94.5 18.6429C94.0729 19.3002 93.6964 19.9377 93.6964 20.7322C95.3405 20.7322 96.9846 20.7322 98.6786 20.7322C98.3992 19.3052 98.3992 19.3052 97.5536 18.3215C96.5471 17.7388 95.3554 17.8403 94.5 18.6429Z" fill="#9ae600"/>
<path d="M59.3036 15.9107C59.4292 16.3543 59.483 16.743 59.4774 17.2034C59.4759 17.3926 59.4759 17.3926 59.4743 17.5857C59.4724 17.721 59.4706 17.8563 59.4687 17.9956C59.4667 18.2858 59.4647 18.5759 59.4627 18.866C59.4588 19.3206 59.4543 19.7751 59.4489 20.2296C59.3052 22.9844 59.3052 22.9844 60.1071 25.5536C60.8393 26.0417 61.543 26.1008 62.3873 25.9353C63.1049 25.5845 63.5263 25.0855 63.9643 24.4286C64.1788 23.5394 64.1606 22.6276 64.1759 21.7178C64.1792 21.5515 64.1825 21.3852 64.186 21.2139C64.1964 20.685 64.2059 20.1561 64.2154 19.6272C64.2224 19.2677 64.2294 18.9082 64.2364 18.5487C64.2537 17.6694 64.2697 16.7901 64.2857 15.9107C65.4525 15.9107 66.6193 15.9107 67.8214 15.9107C67.9616 16.6115 67.9968 17.1604 67.9856 17.8677C67.9841 17.9807 67.9826 18.0937 67.981 18.2101C67.9757 18.5814 67.9692 18.9527 67.9627 19.324C67.9588 19.5823 67.9549 19.8406 67.9512 20.0989C67.9411 20.7771 67.93 21.4553 67.9187 22.1335C67.9073 22.8263 67.8969 23.519 67.8864 24.2117C67.8657 25.5697 67.8438 26.9277 67.8214 28.2857C66.6546 28.2857 65.4879 28.2857 64.2857 28.2857C64.2857 27.7023 64.2857 27.1189 64.2857 26.5179C63.9147 26.8889 63.7124 27.1338 63.452 27.5625C62.9837 28.2083 62.4981 28.4814 61.7143 28.6072C59.9398 28.7565 58.4377 28.7587 57.0034 27.5926C56.21 26.8553 55.7964 26.0385 55.7485 24.9556C55.7489 24.7886 55.7492 24.6215 55.7496 24.4495C55.7496 24.2597 55.7496 24.0699 55.7497 23.8743C55.7505 23.6702 55.7513 23.4661 55.7522 23.2559C55.7524 23.0463 55.7526 22.8368 55.7529 22.6209C55.7535 22.065 55.755 21.5091 55.7568 20.9532C55.7585 20.3854 55.7592 19.8177 55.76 19.2499C55.7617 18.1369 55.7645 17.0238 55.7679 15.9107C56.2366 15.8794 56.7053 15.8494 57.1741 15.8203C57.373 15.8068 57.373 15.8068 57.5759 15.793C57.7043 15.7852 57.8328 15.7775 57.9651 15.7695C58.083 15.7619 58.2008 15.7543 58.3222 15.7465C58.6742 15.7502 58.9669 15.8119 59.3036 15.9107Z" fill="#9ae600"/>
<path d="M51.7669 16.4311C52.2849 16.7761 52.7194 17.139 53.0357 17.6785C53.0357 17.7846 53.0357 17.8907 53.0357 18C53.1418 18 53.2478 18 53.3571 18C53.4648 18.3413 53.5718 18.6829 53.6786 19.0245C53.7382 19.2147 53.7979 19.4049 53.8594 19.6008C54 20.0893 54 20.0893 54 20.4107C52.7802 20.4107 51.5603 20.4107 50.3036 20.4107C50.1445 19.9334 49.9853 19.456 49.8214 18.9643C49.5338 18.5041 49.3458 18.3606 48.8195 18.2373C47.9534 18.1192 47.2507 18.1302 46.4464 18.4821C46.2628 18.7807 46.2628 18.7807 46.125 19.125C46.0798 19.2184 46.0347 19.3118 45.9881 19.4081C45.3452 21.0089 45.4416 23.1271 45.9643 24.75C46.2045 25.1292 46.2045 25.1292 46.4464 25.3928C46.4464 25.4989 46.4464 25.605 46.4464 25.7143C46.6055 25.7143 46.7646 25.7143 46.9286 25.7143C46.9286 25.8203 46.9286 25.9264 46.9286 26.0357C48.0332 26.1157 48.785 26.1109 49.6607 25.3928C49.8728 24.9155 50.085 24.4382 50.3036 23.9464C51.4703 23.9464 52.6371 23.9464 53.8393 23.9464C53.6315 25.6083 53.195 26.5235 51.8956 27.5731C50.6515 28.5088 49.4205 28.6631 47.9029 28.6573C47.7675 28.6599 47.6321 28.6625 47.4926 28.6652C45.8317 28.6665 44.467 28.1193 43.2321 27C42.1156 25.5808 41.702 24.0474 41.7254 22.2689C41.7236 22.128 41.7217 21.987 41.7198 21.8417C41.7283 19.9133 42.3747 18.5004 43.6484 17.0702C45.7586 15.0528 49.3328 14.9996 51.7669 16.4311Z" fill="#9ae600"/>
<path d="M76.3393 15.7499C77.6121 15.803 78.885 15.856 80.1964 15.9107C80.8537 17.9667 81.4846 20.0295 82.0992 22.0985C82.1581 22.2961 82.2169 22.4936 82.2775 22.6971C82.3295 22.872 82.3814 23.047 82.4349 23.2273C82.6422 23.8993 82.8644 24.5658 83.0893 25.2321C83.3496 24.3696 83.6095 23.5071 83.8691 22.6444C83.957 22.3524 84.0451 22.0603 84.1332 21.7683C84.7207 19.8223 85.2862 17.8718 85.8214 15.9107C86.3031 15.7709 86.7294 15.731 87.2302 15.7342C87.3731 15.7348 87.5161 15.7353 87.6634 15.7358C87.8113 15.7372 87.9592 15.7385 88.1116 15.7399C88.3372 15.741 88.3372 15.741 88.5674 15.7421C88.9378 15.744 89.3082 15.7466 89.6786 15.7499C89.8758 16.3417 89.7839 16.4769 89.553 17.0432C89.485 17.2126 89.4171 17.382 89.3471 17.5566C89.2708 17.7427 89.1946 17.9287 89.1161 18.1205C88.9534 18.5255 88.791 18.9306 88.6289 19.3359C88.5852 19.4446 88.5415 19.5533 88.4965 19.6653C87.9663 20.9878 87.4565 22.3181 86.9462 23.6484C86.788 24.061 86.6294 24.4735 86.4709 24.886C86.3716 25.1445 86.2723 25.403 86.173 25.6615C86.1283 25.7777 86.0837 25.8939 86.0377 26.0136C85.9951 26.1246 85.9525 26.2356 85.9087 26.35C85.854 26.4924 85.854 26.4924 85.7983 26.6377C85.5899 27.1863 85.3846 27.7361 85.1786 28.2857C83.7466 28.2857 82.3146 28.2857 80.8393 28.2857C80.6978 27.902 80.5563 27.5183 80.4105 27.123C80.2707 26.7447 80.1307 26.3665 79.9908 25.9883C79.8948 25.7287 79.7989 25.4691 79.7032 25.2094C79.1969 23.8356 78.6832 22.4691 78.1112 21.1208C77.8438 20.49 77.6012 19.8503 77.3582 19.2097C77.1984 18.789 77.0363 18.3695 76.8723 17.9503C76.7816 17.7158 76.691 17.4812 76.6004 17.2466C76.5562 17.1348 76.512 17.023 76.4664 16.9077C76.3611 16.6324 76.2686 16.3521 76.1786 16.0714C76.2316 15.9653 76.2846 15.8592 76.3393 15.7499Z" fill="#9ae600"/>
<path d="M154.446 11.0892C155.032 11.0846 155.618 11.0817 156.204 11.0792C156.455 11.0772 156.455 11.0772 156.711 11.0751C156.95 11.0743 156.95 11.0743 157.193 11.0735C157.414 11.0723 157.414 11.0723 157.639 11.071C157.982 11.0892 157.982 11.0892 158.143 11.2499C158.158 11.6999 158.163 12.1459 158.161 12.596C158.161 12.7371 158.161 12.8782 158.161 13.0235C158.161 13.4923 158.16 13.961 158.159 14.4297C158.158 14.7538 158.158 15.0778 158.158 15.4019C158.157 16.2566 158.156 17.1113 158.154 17.9661C158.152 18.8375 158.152 19.709 158.151 20.5805C158.149 22.2917 158.146 24.003 158.143 25.7142C158.859 25.8733 158.859 25.8733 159.589 26.0357C159.589 26.7782 159.589 27.5207 159.589 28.2857C158.294 28.8037 156.883 28.7689 155.571 28.2857C154.903 27.7626 154.656 27.3297 154.446 26.5178C154.403 26.0088 154.406 25.5026 154.41 24.992C154.41 24.8414 154.41 24.6908 154.41 24.5356C154.41 24.0399 154.413 23.5443 154.415 23.0486C154.416 22.7041 154.416 22.3596 154.416 22.015C154.418 21.1098 154.421 20.2047 154.424 19.2995C154.428 18.3752 154.429 17.4508 154.431 16.5265C154.434 14.7141 154.44 12.9017 154.446 11.0892Z" fill="#9ae600"/>
<path d="M147.536 11.0893C148.756 11.0893 149.975 11.0893 151.232 11.0893C151.236 11.5209 151.24 11.9525 151.244 12.3972C151.258 13.8206 151.272 15.244 151.287 16.6675C151.296 17.5308 151.304 18.3941 151.312 19.2574C151.32 20.09 151.328 20.9226 151.337 21.7552C151.34 22.0734 151.343 22.3917 151.346 22.7099C151.35 23.1544 151.355 23.5988 151.36 24.0433C151.361 24.2422 151.361 24.2422 151.363 24.4451C151.356 25.1009 151.356 25.1009 151.554 25.7143C151.925 25.8203 152.296 25.9264 152.679 26.0357C152.679 26.8312 152.679 27.6268 152.679 28.4464C152.223 28.4868 151.768 28.523 151.312 28.5569C151.185 28.5686 151.058 28.5803 150.927 28.5924C149.849 28.6675 149.02 28.4942 148.118 27.8538C147.463 26.9208 147.49 25.7605 147.499 24.6637C147.499 24.5161 147.499 24.3686 147.499 24.2166C147.499 23.7331 147.502 23.2496 147.504 22.7662C147.505 22.4293 147.505 22.0924 147.506 21.7556C147.507 20.872 147.51 19.9885 147.514 19.105C147.517 18.2022 147.518 17.2994 147.52 16.3966C147.523 14.6275 147.529 12.8584 147.536 11.0893Z" fill="#9ae600"/>
<path d="M70.7143 11.0893C71.8811 11.0893 73.0479 11.0893 74.25 11.0893C74.254 11.5095 74.2581 11.9297 74.2622 12.3626C74.2756 13.7501 74.2899 15.1376 74.3045 16.5251C74.3134 17.3664 74.322 18.2078 74.3299 19.0491C74.3376 19.8609 74.346 20.6726 74.3549 21.4844C74.3582 21.7942 74.3612 22.1041 74.364 22.414C74.3678 22.8476 74.3727 23.2813 74.3777 23.7149C74.3791 23.9076 74.3791 23.9076 74.3805 24.1041C74.388 24.667 74.4208 25.1724 74.5714 25.7143C74.9427 25.8203 75.3139 25.9264 75.6964 26.0357C75.6964 26.8312 75.6964 27.6268 75.6964 28.4464C72.7472 28.8677 72.7472 28.8677 71.5179 28.125C70.9779 27.5424 70.694 27.1475 70.695 26.3573C70.6947 26.223 70.6945 26.0887 70.6943 25.9503C70.6949 25.8026 70.6954 25.655 70.696 25.5029C70.696 25.3477 70.696 25.1925 70.696 25.0325C70.6961 24.5177 70.6973 24.0029 70.6986 23.4881C70.6989 23.1319 70.6991 22.7756 70.6993 22.4193C70.6999 21.4803 70.7015 20.5413 70.7033 19.6023C70.7049 18.6446 70.7056 17.687 70.7064 16.7293C70.7082 14.8493 70.711 12.9693 70.7143 11.0893Z" fill="#9ae600"/>
<path d="M112.339 15.5892C112.419 17.0212 112.419 17.0212 112.5 18.4821C111.265 18.683 111.265 18.683 110.88 18.7415C110.138 18.8717 109.662 19.0464 109.125 19.6071C107.721 21.9059 108.221 25.6585 108.161 28.2857C106.994 28.2857 105.827 28.2857 104.625 28.2857C104.6 26.6959 104.577 25.1062 104.554 23.5164C104.543 22.7782 104.532 22.0401 104.521 21.302C104.51 20.5903 104.499 19.8786 104.49 19.1669C104.486 18.8947 104.482 18.6226 104.477 18.3504C104.471 17.9706 104.466 17.5907 104.461 17.2109C104.459 17.0972 104.457 16.9836 104.454 16.8665C104.452 16.6015 104.457 16.3364 104.464 16.0714C104.826 15.7099 105.644 15.8344 106.132 15.8102C106.273 15.8019 106.413 15.7937 106.559 15.7851C106.762 15.7746 106.762 15.7746 106.969 15.7638C107.094 15.7572 107.218 15.7507 107.346 15.7439C107.679 15.75 107.679 15.75 108.161 15.9107C108.161 16.6001 108.161 17.2896 108.161 18C108.267 18 108.373 18 108.482 18C108.525 17.8574 108.568 17.7149 108.613 17.568C108.902 16.7624 109.123 16.2814 109.888 15.8705C110.733 15.4871 111.43 15.362 112.339 15.5892Z" fill="#9ae600"/>
<path d="M151.393 32.7856C151.976 32.7856 152.56 32.7856 153.161 32.7856C153.161 33.2099 153.161 33.6342 153.161 34.0713C153.317 34.068 153.472 34.0647 153.633 34.0613C154.125 34.0713 154.125 34.0713 154.286 34.232C154.306 34.6338 154.306 34.6338 154.286 35.0356C154.233 35.0886 154.18 35.1417 154.125 35.1963C153.807 35.1963 153.489 35.1963 153.161 35.1963C153.24 36.7078 153.24 36.7078 153.321 38.2499C153.587 38.3029 153.852 38.356 154.125 38.4106C154.125 38.7819 154.125 39.1531 154.125 39.5356C153.817 39.553 153.509 39.5655 153.201 39.5758C153.029 39.5833 152.858 39.5907 152.681 39.5984C152.196 39.5356 152.196 39.5356 151.82 39.2562C151.529 38.8596 151.462 38.6643 151.433 38.1796C151.424 38.041 151.415 37.9024 151.406 37.7596C151.382 36.9049 151.381 36.0512 151.393 35.1963C151.181 35.1963 150.969 35.1963 150.75 35.1963C150.67 34.9577 150.67 34.9577 150.589 34.7142C150.549 34.8574 150.549 34.8574 150.508 35.0036C150.385 35.443 150.261 35.8822 150.137 36.3213C150.095 36.4715 150.053 36.6217 150.01 36.7765C149.51 38.5421 149.51 38.5421 149.143 39.3749C148.645 39.5407 148.415 39.5316 147.907 39.4653C147.777 39.4489 147.648 39.4326 147.514 39.4157C147.415 39.4022 147.316 39.3888 147.214 39.3749C147.17 39.1795 147.125 38.9842 147.079 38.7829C147.021 38.5282 146.962 38.2735 146.903 38.0189C146.874 37.8899 146.844 37.7609 146.814 37.6281C146.717 37.0044 146.717 37.0044 146.411 36.482C146.199 37.4367 145.986 38.3913 145.768 39.3749C145.131 39.3749 144.495 39.3749 143.839 39.3749C143.609 38.6974 143.381 38.0196 143.153 37.3414C143.075 37.1108 142.997 36.8802 142.919 36.6498C142.806 36.3185 142.695 35.9869 142.584 35.6552C142.516 35.4558 142.449 35.2563 142.38 35.0508C142.232 34.5535 142.232 34.5535 142.232 34.0713C142.816 34.0713 143.399 34.0713 144 34.0713C144.268 35.1428 144.536 36.2142 144.804 37.2856C145.016 36.2249 145.228 35.1642 145.446 34.0713C146.083 34.0713 146.719 34.0713 147.375 34.0713C147.758 35.1343 148.001 36.1702 148.179 37.2856C148.223 37.0805 148.268 36.8754 148.314 36.6641C148.372 36.3958 148.431 36.1275 148.49 35.8593C148.519 35.724 148.549 35.5887 148.579 35.4493C148.607 35.3198 148.636 35.1904 148.665 35.057C148.691 34.9374 148.717 34.8179 148.744 34.6948C148.821 34.3928 148.821 34.3928 148.982 34.0713C149.778 34.0713 150.573 34.0713 151.393 34.0713C151.393 33.647 151.393 33.2228 151.393 32.7856Z" fill="#FFF"/>
<path d="M128.32 33.8806C128.476 33.8783 128.631 33.876 128.792 33.8737C129.214 33.9107 129.214 33.9107 129.696 34.2321C129.749 34.1261 129.802 34.02 129.857 33.9107C130.441 33.9107 131.024 33.9107 131.625 33.9107C131.637 34.8115 131.646 35.7123 131.651 36.6131C131.654 36.9195 131.657 37.2258 131.661 37.5321C131.667 37.9729 131.67 38.4137 131.672 38.8545C131.675 38.991 131.677 39.1275 131.68 39.2681C131.68 40.5865 131.68 40.5865 131.143 41.1428C130.665 41.2417 130.665 41.2417 130.088 41.2383C129.777 41.2376 129.777 41.2376 129.459 41.237C129.352 41.2347 129.244 41.2323 129.133 41.2299C128.803 41.2232 128.474 41.2233 128.144 41.2245C126.954 41.2125 126.954 41.2125 126.482 41.1428C126.136 40.6241 126.128 40.4543 126.161 39.8571C126.449 39.8441 126.737 39.8348 127.025 39.827C127.265 39.8186 127.265 39.8186 127.51 39.81C127.648 39.8256 127.786 39.8411 127.929 39.8571C128.035 40.0162 128.141 40.1753 128.25 40.3393C128.812 40.4062 128.812 40.4062 129.375 40.3393C129.787 39.927 129.783 39.6198 129.857 39.0536C129.721 39.1331 129.585 39.2127 129.445 39.2946C128.644 39.6443 128.074 39.6497 127.256 39.3448C126.444 38.8217 126.063 38.2191 125.839 37.2857C125.756 36.3895 125.901 35.6639 126.321 34.875C126.984 34.1156 127.328 33.8872 128.32 33.8806ZM128.14 35.5982C127.749 36.0203 127.704 36.1009 127.677 36.6428C127.71 37.1058 127.77 37.2896 128.019 37.6975C128.419 37.9792 128.419 37.9792 128.993 37.9185C129.577 37.8201 129.577 37.8201 129.857 37.2857C129.931 36.6334 129.931 36.6334 129.857 36C129.509 35.5821 129.509 35.5821 129.054 35.3571C128.559 35.318 128.559 35.318 128.14 35.5982Z" fill="#FFF"/>
<path d="M35.4507 20.562C35.9739 20.7911 36.0925 21.0172 36.3214 21.5357C36.5347 22.5865 36.5811 23.5936 36.1607 24.5893C36.0016 24.6688 36.0016 24.6688 35.8393 24.75C35.8393 24.6439 35.8393 24.5379 35.8393 24.4286C35.7332 24.4286 35.6271 24.4286 35.5179 24.4286C35.5253 24.5241 35.5328 24.6196 35.5405 24.718C35.5886 25.8233 35.4237 26.8281 34.875 27.8036C34.531 28.0145 34.531 28.0145 34.2321 28.125C34.1592 27.9825 34.0863 27.8399 34.0112 27.6931C33.2447 26.5554 31.5817 26.1882 30.3562 25.7482C29.924 25.5667 29.6078 25.3705 29.25 25.0714C29.337 24.3423 29.337 24.3423 29.6524 24.0236C30.562 23.4523 31.5013 22.9899 32.4705 22.5309C33.3557 22.0947 34.0185 21.5503 34.6961 20.8269C35.0357 20.5714 35.0357 20.5714 35.4507 20.562Z" fill="#9ae600"/>
<path d="M46.125 31.8214C46.355 32.2814 46.2214 32.6144 46.125 33.1071C45.409 33.1867 45.409 33.1867 44.6786 33.2679C44.5725 33.533 44.4664 33.7982 44.3571 34.0714C45.4709 34.0714 46.5846 34.0714 47.7321 34.0714C47.7321 35.8216 47.7321 37.5718 47.7321 39.375C47.2018 39.375 46.6714 39.375 46.125 39.375C46.125 37.9961 46.125 36.6171 46.125 35.1964C45.5416 35.1964 44.9582 35.1964 44.3571 35.1964C44.3571 36.5754 44.3571 37.9543 44.3571 39.375C43.8268 39.375 43.2964 39.375 42.75 39.375C42.75 37.9961 42.75 36.6171 42.75 35.1964C42.5379 35.1434 42.3257 35.0904 42.1071 35.0357C42.1071 34.7705 42.1071 34.5054 42.1071 34.2321C42.3193 34.1791 42.5314 34.1261 42.75 34.0714C42.7367 33.9322 42.7235 33.793 42.7098 33.6496C42.7607 32.9627 42.9449 32.6616 43.3929 32.1429C44.2385 31.6891 45.1902 31.7915 46.125 31.8214Z" fill="#FFF"/>
<path d="M154.929 31.9821C155.459 31.9821 155.989 31.9821 156.536 31.9821C156.589 32.8306 156.642 33.6792 156.696 34.5535C156.909 34.3413 157.121 34.1292 157.339 33.9106C158.068 33.7602 158.75 33.8248 159.429 34.1216C160.086 34.6765 160.152 35.1738 160.232 35.9999C160.253 36.556 160.255 37.1109 160.252 37.6673C160.253 37.8876 160.253 37.8876 160.254 38.1124C160.254 38.2519 160.254 38.3913 160.253 38.5349C160.253 38.6616 160.253 38.7882 160.253 38.9187C160.232 39.2142 160.232 39.2142 160.071 39.3749C159.827 39.3865 159.583 39.3884 159.338 39.385C159.205 39.3835 159.073 39.3821 158.936 39.3806C158.833 39.3787 158.731 39.3768 158.625 39.3749C158.491 38.9017 158.439 38.4686 158.425 37.9775C158.419 37.836 158.414 37.6945 158.409 37.5487C158.399 37.2515 158.39 36.9544 158.381 36.6572C158.376 36.5161 158.37 36.375 158.364 36.2297C158.36 36.1008 158.356 35.9719 158.352 35.8391C158.331 35.4812 158.331 35.4812 157.982 35.1963C157.574 35.211 157.574 35.211 157.179 35.3571C156.625 36.1877 156.656 37.088 156.606 38.0591C156.599 38.1857 156.592 38.3124 156.585 38.443C156.568 38.7536 156.552 39.0642 156.536 39.3749C156.005 39.3749 155.475 39.3749 154.929 39.3749C154.929 36.9353 154.929 34.4956 154.929 31.9821Z" fill="#FFF"/>
<path d="M79.2322 34.1115C79.7267 34.5442 80.007 34.8408 80.1052 35.5069C80.1094 35.6853 80.1136 35.8637 80.118 36.0476C80.1265 36.3381 80.1265 36.3381 80.1352 36.6346C80.1389 36.8361 80.1425 37.0377 80.1462 37.2454C80.1544 37.5515 80.1544 37.5515 80.1629 37.8638C80.1761 38.3675 80.1872 38.8711 80.1964 39.3749C79.5536 39.3749 78.9107 39.3749 78.2679 39.3749C78.0292 39.4544 78.0292 39.4544 77.7857 39.5356C77.0946 39.6029 76.5111 39.6087 75.8672 39.3347C75.4973 39.0208 75.341 38.8793 75.2143 38.4106C75.2143 37.3266 75.2143 37.3266 75.579 36.8687C76.2773 36.2607 76.8493 36.1374 77.7455 36.1505C77.874 36.152 78.0024 36.1534 78.1348 36.1549C78.2317 36.1568 78.3287 36.1587 78.4286 36.1606C78.3755 35.8954 78.3225 35.6302 78.2679 35.357C77.8701 35.2775 77.8701 35.2775 77.4643 35.1963C77.3708 35.3542 77.3708 35.3542 77.2753 35.5152C76.9822 35.8392 76.9822 35.8392 76.5835 35.9019C76.3682 35.8907 76.3682 35.8907 76.1484 35.8793C76.0036 35.8735 75.8588 35.8677 75.7096 35.8618C75.5992 35.8543 75.4888 35.8468 75.375 35.8392C75.5124 35.1895 75.6061 34.8021 76.0882 34.3325C77.0093 33.7483 78.2291 33.6935 79.2322 34.1115ZM76.9822 37.4463C76.9286 37.8548 76.9286 37.8548 76.9822 38.2499C77.1504 38.4518 77.1504 38.4518 77.5246 38.4508C77.9451 38.4438 77.9451 38.4438 78.2377 38.2197C78.4875 37.8385 78.4648 37.5716 78.4286 37.1249C77.6588 37.0872 77.6588 37.0872 76.9822 37.4463Z" fill="#FFF"/>
<path d="M101.732 33.9106C102.316 34.1716 102.499 34.3383 102.857 34.8749C103.008 35.4448 103.037 35.9779 103.034 36.5655C103.033 36.7297 103.033 36.8939 103.032 37.0631C103.03 37.3174 103.03 37.3174 103.028 37.5769C103.027 37.7496 103.026 37.9223 103.026 38.1002C103.024 38.5251 103.021 38.95 103.018 39.3749C102.434 39.3749 101.851 39.3749 101.25 39.3749C101.242 39.1002 101.234 38.8255 101.226 38.5425C101.214 38.1838 101.202 37.8251 101.19 37.4664C101.185 37.2851 101.18 37.1039 101.175 36.9171C101.168 36.7441 101.162 36.5711 101.156 36.3929C101.148 36.153 101.148 36.153 101.141 35.9083C101.126 35.4891 101.126 35.4891 100.768 35.1963C100.19 35.2483 100.19 35.2483 99.6429 35.357C99.5022 36.2375 99.4355 37.1086 99.3917 37.9988C99.3848 38.1317 99.3779 38.2646 99.3707 38.4015C99.3538 38.726 99.3376 39.0504 99.3214 39.3749C98.8393 39.5356 98.8393 39.5356 97.7143 39.3749C97.7143 37.6247 97.7143 35.8745 97.7143 34.0713C98.2447 34.0713 98.775 34.0713 99.3214 34.0713C99.3214 34.2304 99.3214 34.3895 99.3214 34.5535C99.4275 34.5535 99.5336 34.5535 99.6429 34.5535C99.6429 34.4474 99.6429 34.3413 99.6429 34.232C100.339 33.8361 100.947 33.8181 101.732 33.9106Z" fill="#FFF"/>
<path d="M58.9018 34.1115C59.3391 34.4177 59.4391 34.5473 59.625 35.0357C59.6762 35.507 59.6762 35.507 59.6915 36.0476C59.6977 36.2414 59.704 36.4351 59.7104 36.6346C59.7153 36.8362 59.7203 37.0378 59.7254 37.2455C59.7316 37.4495 59.7379 37.6536 59.7443 37.8638C59.7594 38.3675 59.7732 38.8712 59.7857 39.3749C59.0893 39.3749 58.3928 39.3749 57.6964 39.3749C57.5373 39.4545 57.5373 39.4545 57.375 39.5357C56.6858 39.6061 56.0982 39.6079 55.4565 39.3348C55.0866 39.0209 54.9303 38.8794 54.8036 38.4107C54.8036 37.3213 54.8036 37.3213 55.174 36.8688C55.8498 36.2905 56.3782 36.1394 57.2444 36.1506C57.3892 36.1521 57.534 36.1535 57.6832 36.155C57.7937 36.1569 57.9041 36.1587 58.0178 36.1607C57.9118 35.8424 57.8057 35.5242 57.6964 35.1964C57.3047 35.2398 57.3047 35.2398 56.8928 35.3571C56.7337 35.5957 56.7337 35.5957 56.5714 35.8392C56.1885 35.8863 56.1885 35.8863 55.7478 35.8694C55.6015 35.865 55.4552 35.8607 55.3045 35.8562C55.1922 35.8506 55.08 35.845 54.9643 35.8392C55.101 35.1285 55.185 34.7957 55.7578 34.3325C56.7781 33.7911 57.8122 33.7224 58.9018 34.1115ZM56.5714 37.4464C56.5178 37.8549 56.5178 37.8549 56.5714 38.2499C56.7397 38.4519 56.7397 38.4519 57.1138 38.4508C57.5344 38.4439 57.5344 38.4439 57.827 38.2198C58.0768 37.8385 58.0541 37.5717 58.0178 37.1249C57.2481 37.0873 57.2481 37.0873 56.5714 37.4464Z" fill="#FFF"/>
<path d="M115.415 34.0262C116.098 34.3937 116.694 34.8984 116.933 35.6547C117.096 36.4991 117.096 37.3244 116.819 38.1395C116.357 38.8026 115.854 39.275 115.071 39.5357C114.071 39.6173 113.184 39.6568 112.339 39.0535C111.663 38.3788 111.353 37.8026 111.335 36.8437C111.347 35.9891 111.475 35.2767 112.087 34.6333C113.017 33.8214 114.236 33.6297 115.415 34.0262ZM113.135 35.7036C112.764 36.4237 112.923 37.0953 113.153 37.8381C113.44 38.3041 113.44 38.3041 114.027 38.4107C114.608 38.4627 114.608 38.4627 115.071 38.0892C115.237 37.5934 115.254 37.2424 115.252 36.7232C115.253 36.569 115.253 36.4149 115.253 36.2561C115.25 35.8206 115.25 35.8206 115.071 35.3571C114.241 34.8035 113.75 34.8801 113.135 35.7036Z" fill="#FFF"/>
<path d="M140.695 34.1718C141.378 34.566 141.748 35.0962 142.031 35.8292C142.153 36.8366 142.08 37.678 141.589 38.5714C140.86 39.2822 140.224 39.5829 139.209 39.5959C138.293 39.577 137.802 39.4718 137.089 38.8928C136.382 38.0405 136.347 37.2683 136.386 36.1763C136.502 35.2263 136.822 34.7663 137.581 34.1618C138.556 33.6785 139.714 33.7362 140.695 34.1718ZM138.485 35.2365C137.968 35.7733 138.011 36.3854 138.017 37.0885C138.074 37.6394 138.309 38.0237 138.696 38.4106C139.367 38.4794 139.367 38.4794 139.952 38.1997C140.418 37.5373 140.377 36.7751 140.304 35.9999C140.156 35.5116 140.156 35.5116 139.821 35.1964C139.269 35.0083 139.005 34.956 138.485 35.2365Z" fill="#FFF"/>
<path d="M95.5245 34.0915C96.1229 34.5189 96.5781 35.0133 96.9107 35.6786C97.0749 37.6031 97.0749 37.6031 96.6696 38.4207C96.0556 39.1422 95.4869 39.4653 94.5452 39.5966C93.5323 39.6397 92.893 39.5162 92.0893 38.8928C91.3595 37.9518 91.1553 37.1662 91.2857 36C91.4996 35.2358 91.8596 34.701 92.5011 34.2321C93.4645 33.6991 94.5024 33.7508 95.5245 34.0915ZM93.4152 35.327C92.8902 36.0706 92.9134 36.7238 93.0536 37.6071C93.261 38.1455 93.261 38.1455 93.6964 38.4107C94.275 38.4639 94.275 38.4639 94.8214 38.25C95.3685 37.6853 95.3558 37.0974 95.3519 36.3509C95.2971 35.9528 95.1966 35.6965 94.9821 35.3571C94.3519 34.9369 94.0528 34.9068 93.4152 35.327Z" fill="#FFF"/>
<path d="M64.9286 33.9107C65.5964 34.2863 65.8211 34.6425 66.0536 35.3571C66.0901 35.8171 66.0901 35.8171 66.085 36.3145C66.0839 36.4932 66.0829 36.6718 66.0818 36.8559C66.0791 37.0408 66.0764 37.2257 66.0737 37.4162C66.0722 37.6042 66.0708 37.7923 66.0693 37.986C66.0655 38.449 66.0602 38.912 66.0536 39.3749C65.258 39.4545 65.258 39.4545 64.4464 39.5357C64.4404 39.2897 64.4344 39.0438 64.4282 38.7905C64.4177 38.4663 64.407 38.1422 64.3962 37.818C64.3926 37.6561 64.3889 37.4942 64.3852 37.3274C64.3522 36.1831 64.3522 36.1831 63.8036 35.1964C63.4142 35.1881 63.4142 35.1881 63 35.3571C62.5195 36.2349 62.4353 37.01 62.4074 37.9988C62.4019 38.1317 62.3964 38.2646 62.3907 38.4016C62.3776 38.7259 62.3671 39.0504 62.3571 39.3749C62.1196 39.4061 61.8818 39.436 61.644 39.4653C61.4454 39.4905 61.4454 39.4905 61.2428 39.5162C61.0784 39.5258 61.0784 39.5258 60.9107 39.5357C60.75 39.3749 60.75 39.3749 60.7318 38.8699C60.7318 38.6463 60.7327 38.4227 60.7343 38.1991C60.7345 38.0816 60.7348 37.9641 60.735 37.8431C60.7359 37.4664 60.7379 37.0898 60.74 36.7131C60.7408 36.4583 60.7415 36.2036 60.7421 35.9488C60.7439 35.323 60.7467 34.6972 60.75 34.0714C61.2804 34.0714 61.8107 34.0714 62.3571 34.0714C62.4102 34.1774 62.4632 34.2835 62.5179 34.3928C62.6239 34.3928 62.73 34.3928 62.8393 34.3928C62.8393 34.2867 62.8393 34.1807 62.8393 34.0714C63.5371 33.8388 64.1993 33.8268 64.9286 33.9107Z" fill="#FFF"/>
<path d="M52.875 33.9107C53.3385 34.1079 53.5827 34.2467 53.858 34.6664C54.0455 35.1541 54.0361 35.5608 54.0314 36.0829C54.0304 36.2838 54.0293 36.4848 54.0283 36.6918C54.0256 36.9011 54.0229 37.1103 54.0201 37.3259C54.0186 37.5376 54.0172 37.7493 54.0157 37.9675C54.0119 38.4903 54.0066 39.013 54 39.5357C53.4696 39.4827 52.9393 39.4296 52.3929 39.375C52.3905 39.2598 52.3882 39.1447 52.3858 39.026C52.3738 38.5061 52.3583 37.9863 52.3426 37.4665C52.339 37.2852 52.3354 37.104 52.3316 36.9172C52.3231 36.6577 52.3231 36.6577 52.3144 36.393C52.3102 36.2331 52.306 36.0732 52.3016 35.9084C52.2787 35.7795 52.2558 35.6506 52.2321 35.5179C51.7893 35.1536 51.7893 35.1536 51.3382 35.2165C50.9318 35.3177 50.9318 35.3177 50.7654 35.6373C50.6081 36.0438 50.5744 36.3661 50.5585 36.8011C50.5491 37.0264 50.5491 37.0264 50.5396 37.2562C50.5322 37.4896 50.5322 37.4896 50.5246 37.7277C50.5152 37.9648 50.5152 37.9648 50.5057 38.2067C50.4906 38.5961 50.4768 38.9855 50.4643 39.375C50.2267 39.4062 49.9889 39.4361 49.7511 39.4654C49.5525 39.4906 49.5525 39.4906 49.35 39.5162C49.1856 39.5259 49.1856 39.5259 49.0179 39.5357C48.8571 39.375 48.8571 39.375 48.8389 38.8699C48.8389 38.6463 48.8398 38.4227 48.8414 38.1991C48.8417 38.0817 48.8419 37.9642 48.8421 37.8431C48.843 37.4665 48.8451 37.0898 48.8471 36.7132C48.8479 36.4584 48.8486 36.2036 48.8493 35.9488C48.8511 35.323 48.8538 34.6972 48.8571 34.0714C49.3875 34.0714 49.9179 34.0714 50.4643 34.0714C50.5173 34.1775 50.5704 34.2836 50.625 34.3929C50.7278 34.3133 50.8305 34.2337 50.9364 34.1518C51.598 33.8277 52.1504 33.8134 52.875 33.9107Z" fill="#FFF"/>
<path d="M89.8192 34.1517C90.4396 34.558 90.7136 35.1588 90.9643 35.8392C90.9643 35.8923 90.9643 35.9453 90.9643 35.9999C90.3684 36.0455 89.7906 36.0744 89.1964 35.9999C88.8449 35.5982 88.8449 35.5982 88.7143 35.1964C88.0447 35.2322 88.0447 35.2322 87.529 35.6082C87.3402 36.3447 87.3729 37.024 87.529 37.7578C87.7337 38.1445 87.7337 38.1445 88.2522 38.2198C88.4047 38.2298 88.5572 38.2397 88.7143 38.2499C88.7905 38.1174 88.8668 37.9848 88.9453 37.8482C89.4133 37.3916 89.4994 37.3913 90.1205 37.3962C90.3485 37.409 90.5763 37.4245 90.8036 37.4464C90.7652 38.4259 90.7652 38.4259 90.4344 38.8194C89.6055 39.519 88.9231 39.5919 87.8781 39.5809C87.1907 39.5117 86.8511 39.3148 86.3036 38.8928C86.0022 38.4709 86.0022 38.4709 85.8214 38.0892C85.7684 37.9832 85.7153 37.8771 85.6607 37.7678C85.5684 36.6976 85.5846 35.8053 86.1428 34.8749C87.1113 33.8589 88.5204 33.5136 89.8192 34.1517Z" fill="#FFF"/>
<path d="M70.9353 34.0814C71.5046 34.5016 71.702 34.8759 72 35.5178C72 35.6769 72 35.836 72 35.9999C71.4244 36.1991 70.9769 36.165 70.3928 35.9999C70.2804 35.7883 70.1731 35.574 70.0714 35.3571C69.6843 35.1966 69.6843 35.1966 69.2678 35.1963C68.7458 35.4731 68.7458 35.4731 68.625 35.9999C68.5582 37.0922 68.5582 37.0922 68.9464 38.0892C69.3311 38.276 69.3311 38.276 69.75 38.2499C70.0743 38.0067 70.212 37.808 70.3928 37.4463C70.9232 37.4463 71.4536 37.4463 72 37.4463C71.9878 37.9573 71.9409 38.2996 71.5894 38.6837C70.6862 39.4577 70.1415 39.5931 68.9439 39.5802C68.0899 39.5008 67.7006 39.0934 67.1183 38.5111C66.7038 37.5864 66.74 36.6748 66.8571 35.6785C67.1965 34.9496 67.6455 34.5269 68.3036 34.0713C69.1749 33.7809 70.0625 33.8066 70.9353 34.0814Z" fill="#FFF"/>
<path d="M104.304 32.7856C104.834 32.7856 105.364 32.7856 105.911 32.7856C105.911 33.2099 105.911 33.6342 105.911 34.0713C106.282 34.0713 106.653 34.0713 107.036 34.0713C107.036 34.4426 107.036 34.8138 107.036 35.1963C106.664 35.1963 106.293 35.1963 105.911 35.1963C105.964 36.257 106.017 37.3178 106.071 38.4106C106.39 38.4106 106.708 38.4106 107.036 38.4106C107.043 38.732 107.042 39.0535 107.036 39.3749C106.759 39.6512 106.408 39.5828 106.031 39.5959C105.878 39.6038 105.725 39.6116 105.567 39.6197C105.107 39.5356 105.107 39.5356 104.651 39.2437C104.135 38.4836 104.216 37.8095 104.253 36.914C104.259 36.6664 104.259 36.6664 104.264 36.4139C104.274 36.0078 104.287 35.6022 104.304 35.1963C104.038 35.1963 103.773 35.1963 103.5 35.1963C103.5 34.8251 103.5 34.4538 103.5 34.0713C103.765 34.0713 104.03 34.0713 104.304 34.0713C104.304 33.647 104.304 33.2228 104.304 32.7856Z" fill="#FFF"/>
<path d="M117.804 32.1429C118.334 32.1429 118.864 32.1429 119.411 32.1429C119.411 34.1582 119.411 36.1736 119.411 38.25C119.623 38.303 119.835 38.3561 120.054 38.4107C120.06 38.7321 120.06 39.0536 120.054 39.375C119.801 39.6273 119.549 39.569 119.2 39.5759C119.012 39.5821 119.012 39.5821 118.82 39.5884C118.315 39.5171 118.149 39.4372 117.804 39.0536C117.71 38.5346 117.729 38.0205 117.741 37.4948C117.742 37.3421 117.743 37.1893 117.744 37.032C117.747 36.544 117.755 36.0561 117.763 35.5681C117.767 35.2373 117.77 34.9066 117.772 34.5759C117.779 33.7648 117.79 32.9538 117.804 32.1429Z" fill="#FFF"/>
<path d="M81.1607 32.1429C81.6911 32.1429 82.2214 32.1429 82.7679 32.1429C82.8209 34.1582 82.8739 36.1736 82.9286 38.25C83.0877 38.303 83.2468 38.3561 83.4107 38.4107C83.4107 38.782 83.4107 39.1532 83.4107 39.5357C83.1868 39.5577 82.9623 39.5731 82.7377 39.5859C82.6128 39.5953 82.4879 39.6046 82.3592 39.6142C81.7477 39.4927 81.54 39.2205 81.1607 38.7321C81.0516 38.2238 81.0669 37.7302 81.0822 37.2123C81.0834 37.0671 81.0845 36.922 81.0857 36.7725C81.0902 36.3106 81.1003 35.8491 81.1105 35.3873C81.1145 35.0735 81.1182 34.7597 81.1215 34.4459C81.1303 33.6781 81.1442 32.9105 81.1607 32.1429Z" fill="#FFF"/>
<path d="M135.683 33.8705C135.829 33.8837 135.975 33.897 136.125 33.9107C136.261 34.4536 136.303 34.8227 136.125 35.3571C135.701 35.4101 135.276 35.4632 134.839 35.5178C134.444 36.7815 134.418 38.0614 134.357 39.3749C134.12 39.4061 133.882 39.436 133.644 39.4653C133.445 39.4905 133.445 39.4905 133.243 39.5162C133.078 39.5258 133.078 39.5258 132.911 39.5357C132.75 39.3749 132.75 39.3749 132.732 38.8699C132.732 38.6463 132.733 38.4227 132.734 38.1991C132.735 38.0816 132.735 37.9641 132.735 37.8431C132.736 37.4664 132.738 37.0898 132.74 36.7131C132.741 36.4583 132.741 36.2036 132.742 35.9488C132.744 35.323 132.747 34.6972 132.75 34.0714C133.28 34.0714 133.811 34.0714 134.357 34.0714C134.41 34.2305 134.463 34.3896 134.518 34.5535C134.604 34.4474 134.69 34.3414 134.779 34.2321C135.161 33.9107 135.161 33.9107 135.683 33.8705Z" fill="#FFF"/>
<path d="M111.214 33.9107C111.214 34.335 111.214 34.7593 111.214 35.1964C111.112 35.2373 111.009 35.2781 110.904 35.3201C110.771 35.3754 110.638 35.4307 110.501 35.4877C110.369 35.5418 110.236 35.5959 110.1 35.6516C109.714 35.8207 109.714 35.8207 109.607 36.3214C109.584 36.5592 109.567 36.7978 109.556 37.0365C109.55 37.1727 109.543 37.3089 109.536 37.4493C109.53 37.5909 109.523 37.7325 109.517 37.8784C109.51 38.0218 109.503 38.1653 109.496 38.3131C109.479 38.667 109.462 39.021 109.446 39.375C108.916 39.375 108.386 39.375 107.839 39.375C107.839 37.6248 107.839 35.8747 107.839 34.0714C108.37 34.0714 108.9 34.0714 109.446 34.0714C109.499 34.1775 109.552 34.2836 109.607 34.3929C109.736 34.2735 109.736 34.2735 109.868 34.1518C110.345 33.8505 110.66 33.873 111.214 33.9107Z" fill="#FFF"/>
<path d="M72.8036 34.0714C73.3339 34.0714 73.8643 34.0714 74.4107 34.0714C74.4107 35.8216 74.4107 37.5717 74.4107 39.375C74.0893 39.5357 74.0893 39.5357 72.8036 39.375C72.8036 37.6248 72.8036 35.8746 72.8036 34.0714Z" fill="#FFF"/>
<path d="M36.4821 15.5893C36.6413 15.6423 36.8004 15.6953 36.9643 15.75C37.3845 18.8493 37.3845 18.8493 36.8036 20.0893C36.2955 19.8691 36.1619 19.7696 35.8393 19.2857C35.6641 18.6579 35.6686 18.0855 35.7087 17.4375C35.7176 17.2601 35.7265 17.0828 35.7357 16.9001C35.8562 16.3102 36.0762 16.0253 36.4821 15.5893Z" fill="#9ae600"/>
<path d="M123.177 35.6183C123.75 35.6786 123.75 35.6786 124.071 35.9397C124.293 36.4668 124.255 36.7469 124.071 37.2857C123.71 37.6071 123.71 37.6071 123.268 37.7678C122.649 37.6238 122.502 37.5024 122.143 36.9643C122.212 36.1225 122.271 35.7172 123.177 35.6183Z" fill="#FFF"/>
<path d="M73.7879 32.0323C74.25 32.1428 74.25 32.1428 74.4107 32.3035C74.4408 32.7756 74.4408 32.7756 74.4107 33.2678C74.0893 33.5892 74.0893 33.5892 73.6071 33.6294C73.125 33.5892 73.125 33.5892 72.8036 33.2678C72.7533 32.7857 72.7533 32.7857 72.8036 32.3035C73.2857 31.9821 73.2857 31.9821 73.7879 32.0323Z" fill="#FFF"/>
</g>
<defs>
<clipPath id="clip0_88_697">
<rect width="160.286" height="42" fill="white"/>
</clipPath>
</defs>
</svg>
